<?xml version="1.0" encoding="UTF-8" standalone="no"?>
<!DOCTYPE svg PUBLIC "-//W3C//DTD SVG 1.1//EN"
 "http://www.w3.org/Graphics/SVG/1.1/DTD/svg11.dtd">
<!-- Generated by graphviz version 2.38.0 (20140413.2041)
 -->
<!-- Title: models_diagram Pages: 1 -->
<svg width="780pt" height="608pt"
 viewBox="0.00 0.00 779.55 608.00" xmlns="http://www.w3.org/2000/svg" xmlns:xlink="http://www.w3.org/1999/xlink">
<g id="graph0" class="graph" transform="scale(1 1) rotate(0) translate(4 604)">
<title>models_diagram</title>
<polygon fill="none" stroke="none" points="-4,4 -4,-604 775.55,-604 775.55,4 -4,4"/>
<!-- _diagram_info -->
<g id="node1" class="node"><title>_diagram_info</title>
<text text-anchor="start" x="8" y="-501.6" font-family="Times,serif" font-size="13.00">Models diagram</text>
<text text-anchor="start" x="8" y="-488.6" font-family="Times,serif" font-size="13.00">Date: Jul 14 2016 &#45; 16:46</text>
<text text-anchor="start" x="8" y="-475.6" font-family="Times,serif" font-size="13.00">Migration version: 20160714102406</text>
<text text-anchor="start" x="8" y="-462.6" font-family="Times,serif" font-size="13.00">Generated by RailRoady 1.5.1</text>
<text text-anchor="start" x="8" y="-449.6" font-family="Times,serif" font-size="13.00">http://railroady.prestonlee.com</text>
</g>
<!-- ApplicationRecord -->
<g id="node2" class="node"><title>ApplicationRecord</title>
<ellipse fill="none" stroke="black" cx="302.688" cy="-479.5" rx="77.2916" ry="18"/>
<text text-anchor="middle" x="302.688" y="-475.3" font-family="Times,serif" font-size="14.00">ApplicationRecord</text>
</g>
<!-- Restaurant -->
<g id="node3" class="node"><title>Restaurant</title>
<path fill="none" stroke="black" d="M427.825,-180.5C427.825,-180.5 651.55,-180.5 651.55,-180.5 657.55,-180.5 663.55,-186.5 663.55,-192.5 663.55,-192.5 663.55,-296.5 663.55,-296.5 663.55,-302.5 657.55,-308.5 651.55,-308.5 651.55,-308.5 427.825,-308.5 427.825,-308.5 421.825,-308.5 415.825,-302.5 415.825,-296.5 415.825,-296.5 415.825,-192.5 415.825,-192.5 415.825,-186.5 421.825,-180.5 427.825,-180.5"/>
<text text-anchor="middle" x="539.688" y="-293.3" font-family="Times,serif" font-size="14.00">Restaurant</text>
<polyline fill="none" stroke="black" points="415.825,-286.5 663.55,-286.5 "/>
<text text-anchor="start" x="423.825" y="-271.3" font-family="Times,serif" font-size="14.00">created_at :timestamp without time zone</text>
<text text-anchor="start" x="423.825" y="-257.3" font-family="Times,serif" font-size="14.00">name :character varying</text>
<text text-anchor="start" x="423.825" y="-243.3" font-family="Times,serif" font-size="14.00">rating :integer</text>
<text text-anchor="start" x="423.825" y="-229.3" font-family="Times,serif" font-size="14.00">id :integer</text>
<text text-anchor="start" x="423.825" y="-215.3" font-family="Times,serif" font-size="14.00">updated_at :timestamp without time zone</text>
<text text-anchor="start" x="423.825" y="-201.3" font-family="Times,serif" font-size="14.00">description :text</text>
<text text-anchor="start" x="423.825" y="-187.3" font-family="Times,serif" font-size="14.00">user_id :integer</text>
</g>
<!-- Review -->
<g id="node4" class="node"><title>Review</title>
<path fill="none" stroke="black" d="M535.825,-0.5C535.825,-0.5 759.55,-0.5 759.55,-0.5 765.55,-0.5 771.55,-6.5 771.55,-12.5 771.55,-12.5 771.55,-130.5 771.55,-130.5 771.55,-136.5 765.55,-142.5 759.55,-142.5 759.55,-142.5 535.825,-142.5 535.825,-142.5 529.825,-142.5 523.825,-136.5 523.825,-130.5 523.825,-130.5 523.825,-12.5 523.825,-12.5 523.825,-6.5 529.825,-0.5 535.825,-0.5"/>
<text text-anchor="middle" x="647.688" y="-127.3" font-family="Times,serif" font-size="14.00">Review</text>
<polyline fill="none" stroke="black" points="523.825,-120.5 771.55,-120.5 "/>
<text text-anchor="start" x="531.825" y="-105.3" font-family="Times,serif" font-size="14.00">user_id :integer</text>
<text text-anchor="start" x="531.825" y="-91.3" font-family="Times,serif" font-size="14.00">review :character varying</text>
<text text-anchor="start" x="531.825" y="-77.3" font-family="Times,serif" font-size="14.00">thoughts :text</text>
<text text-anchor="start" x="531.825" y="-63.3" font-family="Times,serif" font-size="14.00">rating :integer</text>
<text text-anchor="start" x="531.825" y="-49.3" font-family="Times,serif" font-size="14.00">created_at :timestamp without time zone</text>
<text text-anchor="start" x="531.825" y="-35.3" font-family="Times,serif" font-size="14.00">updated_at :timestamp without time zone</text>
<text text-anchor="start" x="531.825" y="-21.3" font-family="Times,serif" font-size="14.00">restaurant_id :integer</text>
<text text-anchor="start" x="531.825" y="-7.3" font-family="Times,serif" font-size="14.00">id :integer</text>
</g>
<!-- Restaurant&#45;&gt;Review -->
<g id="edge1" class="edge"><title>Restaurant&#45;&gt;Review</title>
<path fill="none" stroke="#c56d5b" d="M583.996,-173.346C588.599,-166.057 593.3,-158.614 597.958,-151.239"/>
<ellipse fill="none" stroke="#c56d5b" cx="581.732" cy="-176.93" rx="4.00002" ry="4.00002"/>
<polygon fill="#c56d5b" stroke="#c56d5b" points="598.058,-151.081 607.203,-145.029 600.728,-146.853 603.398,-142.626 603.398,-142.626 603.398,-142.626 600.728,-146.853 599.593,-140.223 598.058,-151.081 598.058,-151.081"/>
</g>
<!-- User -->
<g id="node5" class="node"><title>User</title>
<path fill="none" stroke="black" d="M410.053,-359.5C410.053,-359.5 705.323,-359.5 705.323,-359.5 711.323,-359.5 717.323,-365.5 717.323,-371.5 717.323,-371.5 717.323,-587.5 717.323,-587.5 717.323,-593.5 711.323,-599.5 705.323,-599.5 705.323,-599.5 410.053,-599.5 410.053,-599.5 404.053,-599.5 398.053,-593.5 398.053,-587.5 398.053,-587.5 398.053,-371.5 398.053,-371.5 398.053,-365.5 404.053,-359.5 410.053,-359.5"/>
<text text-anchor="middle" x="557.688" y="-584.3" font-family="Times,serif" font-size="14.00">User</text>
<polyline fill="none" stroke="black" points="398.053,-577.5 717.323,-577.5 "/>
<text text-anchor="start" x="406.053" y="-562.3" font-family="Times,serif" font-size="14.00">uid :character varying</text>
<text text-anchor="start" x="406.053" y="-548.3" font-family="Times,serif" font-size="14.00">email :character varying</text>
<text text-anchor="start" x="406.053" y="-534.3" font-family="Times,serif" font-size="14.00">encrypted_password :character varying</text>
<text text-anchor="start" x="406.053" y="-520.3" font-family="Times,serif" font-size="14.00">reset_password_token :character varying</text>
<text text-anchor="start" x="406.053" y="-506.3" font-family="Times,serif" font-size="14.00">reset_password_sent_at :timestamp without time zone</text>
<text text-anchor="start" x="406.053" y="-492.3" font-family="Times,serif" font-size="14.00">remember_created_at :timestamp without time zone</text>
<text text-anchor="start" x="406.053" y="-478.3" font-family="Times,serif" font-size="14.00">sign_in_count :integer</text>
<text text-anchor="start" x="406.053" y="-464.3" font-family="Times,serif" font-size="14.00">current_sign_in_at :timestamp without time zone</text>
<text text-anchor="start" x="406.053" y="-450.3" font-family="Times,serif" font-size="14.00">last_sign_in_at :timestamp without time zone</text>
<text text-anchor="start" x="406.053" y="-436.3" font-family="Times,serif" font-size="14.00">current_sign_in_ip :inet</text>
<text text-anchor="start" x="406.053" y="-422.3" font-family="Times,serif" font-size="14.00">last_sign_in_ip :inet</text>
<text text-anchor="start" x="406.053" y="-408.3" font-family="Times,serif" font-size="14.00">created_at :timestamp without time zone</text>
<text text-anchor="start" x="406.053" y="-394.3" font-family="Times,serif" font-size="14.00">updated_at :timestamp without time zone</text>
<text text-anchor="start" x="406.053" y="-380.3" font-family="Times,serif" font-size="14.00">provider :character varying</text>
<text text-anchor="start" x="406.053" y="-366.3" font-family="Times,serif" font-size="14.00">id :integer</text>
</g>
<!-- User&#45;&gt;Restaurant -->
<g id="edge2" class="edge"><title>User&#45;&gt;Restaurant</title>
<path fill="none" stroke="#94ca66" d="M539.476,-351.258C539.184,-347.805 538.92,-344.381 538.688,-341 538.261,-334.792 538.65,-333.222 538.688,-327 538.704,-324.307 538.724,-321.564 538.746,-318.793"/>
<ellipse fill="none" stroke="#94ca66" cx="539.847" cy="-355.375" rx="4" ry="4"/>
<polygon fill="#94ca66" stroke="#94ca66" points="538.747,-318.679 543.336,-308.72 538.791,-313.68 538.836,-308.68 538.836,-308.68 538.836,-308.68 538.791,-313.68 534.336,-308.64 538.747,-318.679 538.747,-318.679"/>
</g>
<!-- User&#45;&gt;Restaurant -->
<g id="edge4" class="edge"><title>User&#45;&gt;Restaurant</title>
<path fill="none" stroke="#0ae7bb" d="M547.688,-349.057C546.886,-338.68 546.095,-328.442 545.341,-318.678"/>
<polygon fill="#0ae7bb" stroke="#0ae7bb" points="547.706,-349.299 543.99,-359.616 548.092,-354.285 548.477,-359.27 548.477,-359.27 548.477,-359.27 548.092,-354.285 552.963,-358.923 547.706,-349.299 547.706,-349.299"/>
<polygon fill="#0ae7bb" stroke="#0ae7bb" points="545.34,-318.658 549.056,-308.341 544.954,-313.673 544.569,-308.688 544.569,-308.688 544.569,-308.688 544.954,-313.673 540.083,-309.034 545.34,-318.658 545.34,-318.658"/>
<text text-anchor="middle" x="605.16" y="-329.8" font-family="Times,serif" font-size="14.00">reviewed_restaurants</text>
</g>
<!-- User&#45;&gt;Review -->
<g id="edge3" class="edge"><title>User&#45;&gt;Review</title>
<path fill="none" stroke="#4d3132" d="M663.474,-352.29C665.335,-348.551 667.079,-344.785 668.688,-341 694.042,-281.323 685.766,-207.513 672.854,-152.392"/>
<ellipse fill="none" stroke="#4d3132" cx="661.599" cy="-355.894" rx="4.00002" ry="4.00002"/>
<polygon fill="#4d3132" stroke="#4d3132" points="672.853,-152.388 674.857,-141.607 671.669,-147.531 670.485,-142.673 670.485,-142.673 670.485,-142.673 671.669,-147.531 666.113,-143.739 672.853,-152.388 672.853,-152.388"/>
</g>
</g>
</svg>
